<?xml version="1.0" encoding="UTF-8"?>
<svg width="403px" height="403px" viewBox="0 0 403 403" version="1.1" xmlns="http://www.w3.org/2000/svg" xmlns:xlink="http://www.w3.org/1999/xlink">
    <title>Group</title>
    <defs>
        <radialGradient cx="53.3330513%" cy="16.5379538%" fx="53.3330513%" fy="16.5379538%" r="112.167976%" gradientTransform="translate(0.533331,0.165380),scale(1.000000,0.868875),rotate(90.000000),translate(-0.533331,-0.165380)" id="radialGradient-1">
            <stop stop-color="#E67171" offset="0%"></stop>
            <stop stop-color="#D8F3D0" offset="100%"></stop>
            <stop stop-color="#FFA767" offset="100%"></stop>
        </radialGradient>
    </defs>
    <g id="Page-1" stroke="none" stroke-width="1" fill="none" fill-rule="evenodd">
        <g id="Group" transform="translate(0.000000, 0.000000)">
            <circle id="Oval" fill="#F1F1F1" cx="201.5" cy="201.5" r="201.5"></circle>
            <g id="task" transform="translate(63.000000, 97.000000)">
                <path d="M65.5,1.5 C67.709139,1.5 69.709139,2.3954305 71.1568542,3.84314575 C72.6045695,5.290861 73.5,7.290861 73.5,9.5 C73.5,11.8898368 72.4535429,14.0354687 70.7887818,15.5004334 L70.7887818,15.5004334 L99,15.5 C100.794925,15.5 102.419925,16.2275373 103.596194,17.4038059 C104.772463,18.5800746 105.5,20.2050746 105.5,22 L105.5,22 L105.5,116 C105.5,117.794925 104.772463,119.419925 103.596194,120.596194 C102.419925,121.772463 100.794925,122.5 99,122.5 L99,122.5 L32,122.5 C30.2050746,122.5 28.5800746,121.772463 27.4038059,120.596194 C26.2275373,119.419925 25.5,117.794925 25.5,116 L25.5,116 L25.5,22 C25.5,20.2050746 26.2275373,18.5800746 27.4038059,17.4038059 C28.5800746,16.2275373 30.2050746,15.5 31.999977,15.5 L31.999977,15.5 L60.2112182,15.5004334 C58.5464571,14.0354687 57.5,11.8898368 57.5,9.5 C57.5,7.290861 58.3954305,5.290861 59.8431458,3.84314575 C61.290861,2.3954305 63.290861,1.5 65.5,1.5 Z" id="Combined-Shape" stroke="#AFC0A5" stroke-width="3" fill="#AFC0A5"></path>
                <circle id="Oval" fill="#E29289" cx="24" cy="120" r="24"></circle>
                <g id="ion-checkmark-done-outline" transform="translate(9.000000, 104.000000)">
                    <g id="Icon" transform="translate(3.688134, 7.231317)" stroke="#CD6666" stroke-linecap="round" stroke-linejoin="round" stroke-width="2">
                        <polyline id="Icon-Path" points="25 0 11.5384615 16 5.76923077 10"></polyline>
                        <line x1="5.76923077" y1="16" x2="-1.09314267e-13" y2="10" id="Icon-Path"></line>
                        <line x1="19.2307692" y1="5.68434189e-14" x2="11.0576923" y2="9.75" id="Icon-Path"></line>
                    </g>
                    <rect id="ViewBox" fill-rule="nonzero" x="0.859143618" y="0.201163761" width="31" height="31"></rect>
                </g>
            </g>
            <g id="icon" transform="translate(237.000000, 201.500000) rotate(20.000000) translate(-237.000000, -201.500000) translate(124.000000, 53.000000)">
                <path d="M121.953506,-8.81072992e-13 C126.371784,-8.81884617e-13 129.953506,3.581722 129.953506,8 L129.954349,18.8101565 C164.710938,26.3318455 191.055301,56.43944 192.855285,93.000787 L192.953506,93 L192.953506,199.880785 C192.953506,209.96136 196.33822,219.750006 202.565034,227.677476 L224.141517,255.146887 C225.164963,256.449855 224.938366,258.335786 223.635398,259.359231 C223.1069,259.774352 222.454324,260 221.782285,260 L4.12472712,260 C2.46787287,260 1.12472712,258.656854 1.12472712,257 C1.12472712,256.327962 1.35037471,255.675385 1.76549567,255.146887 L23.3419781,227.677476 C29.5687924,219.750006 32.9535063,209.96136 32.9535063,199.880785 L32.9535063,93 L33.0517276,93.000787 C34.8689463,56.0893675 61.702816,25.7558807 96.9533397,18.6003237 L96.9535063,8 C96.9535063,3.581722 100.535228,-8.82037725e-13 104.953506,-8.81072992e-13 L121.953506,-8.81072992e-13 Z" id="Combined-Shape" fill="url(#radialGradient-1)"></path>
                <path d="M162.344252,267.000726 C153.373518,284.794612 134.936577,296.999372 113.649062,296.999372 C92.3615473,296.999372 73.9246066,284.794612 64.9538725,267.000726 Z" id="Combined-Shape" fill="#AFC0A5"></path>
                <circle id="Oval" fill="#CD6666" cx="169.453506" cy="40.5" r="27.5"></circle>
            </g>
            <g id="code" transform="translate(109.000000, 141.000000)">
                <circle id="Oval" fill="#DBD7BB" cx="20" cy="20" r="20"></circle>
                <text id="&lt;/&gt;" font-family="HiraMaruProN-W4, Hiragino Maru Gothic ProN" font-size="21" font-weight="normal" fill="#CD6666">
                    <tspan x="4" y="27">&lt;/&gt;</tspan>
                </text>
            </g>
        </g>
    </g>
</svg>